<svg viewBox="0 0 960 540" xmlns="http://www.w3.org/2000/svg"><rect x="20" y="150" width="190" height="84" rx="12" fill="none" stroke="#ffcc99" stroke-width="3"/><text x="115" y="184" fill="#f5f6fa" font-size="20" text-anchor="middle">Voice command</text><text x="115" y="210" fill="#cc99cc" font-size="19" text-anchor="middle">“Netflix on the TV”</text><line x1="210" y1="192" x2="248" y2="192" stroke="#9999ff" stroke-width="3"/><polygon points="256,192 242,185 242,199" fill="#9999ff"/><rect x="260" y="150" width="195" height="84" rx="12" fill="none" stroke="#ffcc66" stroke-width="3"/><text x="357" y="184" fill="#f5f6fa" font-size="20" text-anchor="middle">Computer</text><text x="357" y="210" fill="#f5f6fa" font-size="20" text-anchor="middle">cast service</text><line x1="455" y1="170" x2="495" y2="105" stroke="#9999ff" stroke-width="3"/><polygon points="500,97 486,100 496,110" fill="#9999ff"/><line x1="455" y1="214" x2="495" y2="300" stroke="#9999ff" stroke-width="3"/><polygon points="500,308 496,295 486,303" fill="#9999ff"/><rect x="505" y="45" width="275" height="110" rx="12" fill="none" stroke="#9999ff" stroke-width="3"/><text x="642" y="77" fill="#ffcc66" font-size="21" font-weight="bold" text-anchor="middle">CHROMECAST</text><text x="642" y="104" fill="#f5f6fa" font-size="19" text-anchor="middle">mDNS discovery on LAN</text><text x="642" y="130" fill="#f5f6fa" font-size="19" text-anchor="middle">Cast v2 :8009 · launch app ID</text><rect x="505" y="265" width="275" height="110" rx="12" fill="none" stroke="#9999ff" stroke-width="3"/><text x="642" y="297" fill="#ffcc66" font-size="21" font-weight="bold" text-anchor="middle">FIRE TV</text><text x="642" y="324" fill="#f5f6fa" font-size="19" text-anchor="middle">ADB over Wi-Fi :5555</text><text x="642" y="350" fill="#f5f6fa" font-size="19" text-anchor="middle">deep-link intent to the title</text><line x1="780" y1="100" x2="820" y2="165" stroke="#9999ff" stroke-width="3"/><polygon points="825,173 821,160 811,168" fill="#9999ff"/><line x1="780" y1="320" x2="820" y2="255" stroke="#9999ff" stroke-width="3"/><polygon points="825,247 811,252 821,262" fill="#9999ff"/><rect x="810" y="165" width="130" height="90" rx="12" fill="none" stroke="#cc99cc" stroke-width="3"/><text x="875" y="202" fill="#f5f6fa" font-size="20" text-anchor="middle">TV app</text><text x="875" y="228" fill="#f5f6fa" font-size="20" text-anchor="middle">plays it</text><rect x="20" y="440" width="920" height="64" rx="12" fill="none" stroke="#cc99cc" stroke-width="3" stroke-dasharray="10 7"/><text x="480" y="479" fill="#f5f6fa" font-size="20" text-anchor="middle">Transport by voice — pause · volume · stop → key events over the same link</text></svg>