<svg viewBox="0 0 950 498" xmlns="http://www.w3.org/2000/svg"><rect x="8" y="44" width="50" height="46" rx="4" fill="none" stroke="#8fc98f" stroke-width="1.5"/><text x="12" y="57" font-size="9" fill="#f5f6fa">1</text><text x="33.0" y="77" font-size="18" fill="#8fc98f" text-anchor="middle" font-weight="bold">H</text><rect x="892" y="44" width="50" height="46" rx="4" fill="none" stroke="#9999ff" stroke-width="1.5"/><text x="896" y="57" font-size="9" fill="#f5f6fa">2</text><text x="917.0" y="77" font-size="18" fill="#9999ff" text-anchor="middle" font-weight="bold">He</text><rect x="8" y="92" width="50" height="46" rx="4" fill="none" stroke="#cc6666" stroke-width="1.5"/><text x="12" y="105" font-size="9" fill="#f5f6fa">3</text><text x="33.0" y="125" font-size="18" fill="#cc6666" text-anchor="middle" font-weight="bold">Li</text><rect x="60" y="92" width="50" height="46" rx="4" fill="none" stroke="#e08a5a" stroke-width="1.5"/><text x="64" y="105" font-size="9" fill="#f5f6fa">4</text><text x="85.0" y="125" font-size="18" fill="#e08a5a" text-anchor="middle" font-weight="bold">Be</text><rect x="632" y="92" width="50" height="46" rx="4" fill="none" stroke="#66b3a1" stroke-width="1.5"/><text x="636" y="105" font-size="9" fill="#f5f6fa">5</text><text x="657.0" y="125" font-size="18" fill="#66b3a1" text-anchor="middle" font-weight="bold">B</text><rect x="684" y="92" width="50" height="46" rx="4" fill="none" stroke="#8fc98f" stroke-width="1.5"/><text x="688" y="105" font-size="9" fill="#f5f6fa">6</text><text x="709.0" y="125" font-size="18" fill="#8fc98f" text-anchor="middle" font-weight="bold">C</text><rect x="736" y="92" width="50" height="46" rx="4" fill="none" stroke="#8fc98f" stroke-width="1.5"/><text x="740" y="105" font-size="9" fill="#f5f6fa">7</text><text x="761.0" y="125" font-size="18" fill="#8fc98f" text-anchor="middle" font-weight="bold">N</text><rect x="788" y="92" width="50" height="46" rx="4" fill="none" stroke="#8fc98f" stroke-width="1.5"/><text x="792" y="105" font-size="9" fill="#f5f6fa">8</text><text x="813.0" y="125" font-size="18" fill="#8fc98f" text-anchor="middle" font-weight="bold">O</text><rect x="840" y="92" width="50" height="46" rx="4" fill="none" stroke="#7fbf7f" stroke-width="1.5"/><text x="844" y="105" font-size="9" fill="#f5f6fa">9</text><text x="865.0" y="125" font-size="18" fill="#7fbf7f" text-anchor="middle" font-weight="bold">F</text><rect x="892" y="92" width="50" height="46" rx="4" fill="none" stroke="#9999ff" stroke-width="1.5"/><text x="896" y="105" font-size="9" fill="#f5f6fa">10</text><text x="917.0" y="125" font-size="18" fill="#9999ff" text-anchor="middle" font-weight="bold">Ne</text><rect x="8" y="140" width="50" height="46" rx="4" fill="none" stroke="#cc6666" stroke-width="1.5"/><text x="12" y="153" font-size="9" fill="#f5f6fa">11</text><text x="33.0" y="173" font-size="18" fill="#cc6666" text-anchor="middle" font-weight="bold">Na</text><rect x="60" y="140" width="50" height="46" rx="4" fill="none" stroke="#e08a5a" stroke-width="1.5"/><text x="64" y="153" font-size="9" fill="#f5f6fa">12</text><text x="85.0" y="173" font-size="18" fill="#e08a5a" text-anchor="middle" font-weight="bold">Mg</text><rect x="632" y="140" width="50" height="46" rx="4" fill="none" stroke="#b3b3cc" stroke-width="1.5"/><text x="636" y="153" font-size="9" fill="#f5f6fa">13</text><text x="657.0" y="173" font-size="18" fill="#b3b3cc" text-anchor="middle" font-weight="bold">Al</text><rect x="684" y="140" width="50" height="46" rx="4" fill="none" stroke="#66b3a1" stroke-width="1.5"/><text x="688" y="153" font-size="9" fill="#f5f6fa">14</text><text x="709.0" y="173" font-size="18" fill="#66b3a1" text-anchor="middle" font-weight="bold">Si</text><rect x="736" y="140" width="50" height="46" rx="4" fill="none" stroke="#8fc98f" stroke-width="1.5"/><text x="740" y="153" font-size="9" fill="#f5f6fa">15</text><text x="761.0" y="173" font-size="18" fill="#8fc98f" text-anchor="middle" font-weight="bold">P</text><rect x="788" y="140" width="50" height="46" rx="4" fill="none" stroke="#8fc98f" stroke-width="1.5"/><text x="792" y="153" font-size="9" fill="#f5f6fa">16</text><text x="813.0" y="173" font-size="18" fill="#8fc98f" text-anchor="middle" font-weight="bold">S</text><rect x="840" y="140" width="50" height="46" rx="4" fill="none" stroke="#7fbf7f" stroke-width="1.5"/><text x="844" y="153" font-size="9" fill="#f5f6fa">17</text><text x="865.0" y="173" font-size="18" fill="#7fbf7f" text-anchor="middle" font-weight="bold">Cl</text><rect x="892" y="140" width="50" height="46" rx="4" fill="none" stroke="#9999ff" stroke-width="1.5"/><text x="896" y="153" font-size="9" fill="#f5f6fa">18</text><text x="917.0" y="173" font-size="18" fill="#9999ff" text-anchor="middle" font-weight="bold">Ar</text><rect x="8" y="188" width="50" height="46" rx="4" fill="none" stroke="#cc6666" stroke-width="1.5"/><text x="12" y="201" font-size="9" fill="#f5f6fa">19</text><text x="33.0" y="221" font-size="18" fill="#cc6666" text-anchor="middle" font-weight="bold">K</text><rect x="60" y="188" width="50" height="46" rx="4" fill="none" stroke="#e08a5a" stroke-width="1.5"/><text x="64" y="201" font-size="9" fill="#f5f6fa">20</text><text x="85.0" y="221" font-size="18" fill="#e08a5a" text-anchor="middle" font-weight="bold">Ca</text><rect x="112" y="188" width="50" height="46" rx="4" fill="none" stroke="#ffcc66" stroke-width="1.5"/><text x="116" y="201" font-size="9" fill="#f5f6fa">21</text><text x="137.0" y="221" font-size="18" fill="#ffcc66" text-anchor="middle" font-weight="bold">Sc</text><rect x="164" y="188" width="50" height="46" rx="4" fill="none" stroke="#ffcc66" stroke-width="1.5"/><text x="168" y="201" font-size="9" fill="#f5f6fa">22</text><text x="189.0" y="221" font-size="18" fill="#ffcc66" text-anchor="middle" font-weight="bold">Ti</text><rect x="216" y="188" width="50" height="46" rx="4" fill="none" stroke="#ffcc66" stroke-width="1.5"/><text x="220" y="201" font-size="9" fill="#f5f6fa">23</text><text x="241.0" y="221" font-size="18" fill="#ffcc66" text-anchor="middle" font-weight="bold">V</text><rect x="268" y="188" width="50" height="46" rx="4" fill="none" stroke="#ffcc66" stroke-width="1.5"/><text x="272" y="201" font-size="9" fill="#f5f6fa">24</text><text x="293.0" y="221" font-size="18" fill="#ffcc66" text-anchor="middle" font-weight="bold">Cr</text><rect x="320" y="188" width="50" height="46" rx="4" fill="none" stroke="#ffcc66" stroke-width="1.5"/><text x="324" y="201" font-size="9" fill="#f5f6fa">25</text><text x="345.0" y="221" font-size="18" fill="#ffcc66" text-anchor="middle" font-weight="bold">Mn</text><rect x="372" y="188" width="50" height="46" rx="4" fill="none" stroke="#ffcc66" stroke-width="1.5"/><text x="376" y="201" font-size="9" fill="#f5f6fa">26</text><text x="397.0" y="221" font-size="18" fill="#ffcc66" text-anchor="middle" font-weight="bold">Fe</text><rect x="424" y="188" width="50" height="46" rx="4" fill="none" stroke="#ffcc66" stroke-width="1.5"/><text x="428" y="201" font-size="9" fill="#f5f6fa">27</text><text x="449.0" y="221" font-size="18" fill="#ffcc66" text-anchor="middle" font-weight="bold">Co</text><rect x="476" y="188" width="50" height="46" rx="4" fill="none" stroke="#ffcc66" stroke-width="1.5"/><text x="480" y="201" font-size="9" fill="#f5f6fa">28</text><text x="501.0" y="221" font-size="18" fill="#ffcc66" text-anchor="middle" font-weight="bold">Ni</text><rect x="528" y="188" width="50" height="46" rx="4" fill="none" stroke="#ffcc66" stroke-width="1.5"/><text x="532" y="201" font-size="9" fill="#f5f6fa">29</text><text x="553.0" y="221" font-size="18" fill="#ffcc66" text-anchor="middle" font-weight="bold">Cu</text><rect x="580" y="188" width="50" height="46" rx="4" fill="none" stroke="#ffcc66" stroke-width="1.5"/><text x="584" y="201" font-size="9" fill="#f5f6fa">30</text><text x="605.0" y="221" font-size="18" fill="#ffcc66" text-anchor="middle" font-weight="bold">Zn</text><rect x="632" y="188" width="50" height="46" rx="4" fill="none" stroke="#b3b3cc" stroke-width="1.5"/><text x="636" y="201" font-size="9" fill="#f5f6fa">31</text><text x="657.0" y="221" font-size="18" fill="#b3b3cc" text-anchor="middle" font-weight="bold">Ga</text><rect x="684" y="188" width="50" height="46" rx="4" fill="none" stroke="#66b3a1" stroke-width="1.5"/><text x="688" y="201" font-size="9" fill="#f5f6fa">32</text><text x="709.0" y="221" font-size="18" fill="#66b3a1" text-anchor="middle" font-weight="bold">Ge</text><rect x="736" y="188" width="50" height="46" rx="4" fill="none" stroke="#66b3a1" stroke-width="1.5"/><text x="740" y="201" font-size="9" fill="#f5f6fa">33</text><text x="761.0" y="221" font-size="18" fill="#66b3a1" text-anchor="middle" font-weight="bold">As</text><rect x="788" y="188" width="50" height="46" rx="4" fill="none" stroke="#8fc98f" stroke-width="1.5"/><text x="792" y="201" font-size="9" fill="#f5f6fa">34</text><text x="813.0" y="221" font-size="18" fill="#8fc98f" text-anchor="middle" font-weight="bold">Se</text><rect x="840" y="188" width="50" height="46" rx="4" fill="none" stroke="#7fbf7f" stroke-width="1.5"/><text x="844" y="201" font-size="9" fill="#f5f6fa">35</text><text x="865.0" y="221" font-size="18" fill="#7fbf7f" text-anchor="middle" font-weight="bold">Br</text><rect x="892" y="188" width="50" height="46" rx="4" fill="none" stroke="#9999ff" stroke-width="1.5"/><text x="896" y="201" font-size="9" fill="#f5f6fa">36</text><text x="917.0" y="221" font-size="18" fill="#9999ff" text-anchor="middle" font-weight="bold">Kr</text><rect x="8" y="236" width="50" height="46" rx="4" fill="none" stroke="#cc6666" stroke-width="1.5"/><text x="12" y="249" font-size="9" fill="#f5f6fa">37</text><text x="33.0" y="269" font-size="18" fill="#cc6666" text-anchor="middle" font-weight="bold">Rb</text><rect x="60" y="236" width="50" height="46" rx="4" fill="none" stroke="#e08a5a" stroke-width="1.5"/><text x="64" y="249" font-size="9" fill="#f5f6fa">38</text><text x="85.0" y="269" font-size="18" fill="#e08a5a" text-anchor="middle" font-weight="bold">Sr</text><rect x="112" y="236" width="50" height="46" rx="4" fill="none" stroke="#ffcc66" stroke-width="1.5"/><text x="116" y="249" font-size="9" fill="#f5f6fa">39</text><text x="137.0" y="269" font-size="18" fill="#ffcc66" text-anchor="middle" font-weight="bold">Y</text><rect x="164" y="236" width="50" height="46" rx="4" fill="none" stroke="#ffcc66" stroke-width="1.5"/><text x="168" y="249" font-size="9" fill="#f5f6fa">40</text><text x="189.0" y="269" font-size="18" fill="#ffcc66" text-anchor="middle" font-weight="bold">Zr</text><rect x="216" y="236" width="50" height="46" rx="4" fill="none" stroke="#ffcc66" stroke-width="1.5"/><text x="220" y="249" font-size="9" fill="#f5f6fa">41</text><text x="241.0" y="269" font-size="18" fill="#ffcc66" text-anchor="middle" font-weight="bold">Nb</text><rect x="268" y="236" width="50" height="46" rx="4" fill="none" stroke="#ffcc66" stroke-width="1.5"/><text x="272" y="249" font-size="9" fill="#f5f6fa">42</text><text x="293.0" y="269" font-size="18" fill="#ffcc66" text-anchor="middle" font-weight="bold">Mo</text><rect x="320" y="236" width="50" height="46" rx="4" fill="none" stroke="#ffcc66" stroke-width="1.5"/><text x="324" y="249" font-size="9" fill="#f5f6fa">43</text><text x="345.0" y="269" font-size="18" fill="#ffcc66" text-anchor="middle" font-weight="bold">Tc</text><rect x="372" y="236" width="50" height="46" rx="4" fill="none" stroke="#ffcc66" stroke-width="1.5"/><text x="376" y="249" font-size="9" fill="#f5f6fa">44</text><text x="397.0" y="269" font-size="18" fill="#ffcc66" text-anchor="middle" font-weight="bold">Ru</text><rect x="424" y="236" width="50" height="46" rx="4" fill="none" stroke="#ffcc66" stroke-width="1.5"/><text x="428" y="249" font-size="9" fill="#f5f6fa">45</text><text x="449.0" y="269" font-size="18" fill="#ffcc66" text-anchor="middle" font-weight="bold">Rh</text><rect x="476" y="236" width="50" height="46" rx="4" fill="none" stroke="#ffcc66" stroke-width="1.5"/><text x="480" y="249" font-size="9" fill="#f5f6fa">46</text><text x="501.0" y="269" font-size="18" fill="#ffcc66" text-anchor="middle" font-weight="bold">Pd</text><rect x="528" y="236" width="50" height="46" rx="4" fill="none" stroke="#ffcc66" stroke-width="1.5"/><text x="532" y="249" font-size="9" fill="#f5f6fa">47</text><text x="553.0" y="269" font-size="18" fill="#ffcc66" text-anchor="middle" font-weight="bold">Ag</text><rect x="580" y="236" width="50" height="46" rx="4" fill="none" stroke="#ffcc66" stroke-width="1.5"/><text x="584" y="249" font-size="9" fill="#f5f6fa">48</text><text x="605.0" y="269" font-size="18" fill="#ffcc66" text-anchor="middle" font-weight="bold">Cd</text><rect x="632" y="236" width="50" height="46" rx="4" fill="none" stroke="#b3b3cc" stroke-width="1.5"/><text x="636" y="249" font-size="9" fill="#f5f6fa">49</text><text x="657.0" y="269" font-size="18" fill="#b3b3cc" text-anchor="middle" font-weight="bold">In</text><rect x="684" y="236" width="50" height="46" rx="4" fill="none" stroke="#b3b3cc" stroke-width="1.5"/><text x="688" y="249" font-size="9" fill="#f5f6fa">50</text><text x="709.0" y="269" font-size="18" fill="#b3b3cc" text-anchor="middle" font-weight="bold">Sn</text><rect x="736" y="236" width="50" height="46" rx="4" fill="none" stroke="#66b3a1" stroke-width="1.5"/><text x="740" y="249" font-size="9" fill="#f5f6fa">51</text><text x="761.0" y="269" font-size="18" fill="#66b3a1" text-anchor="middle" font-weight="bold">Sb</text><rect x="788" y="236" width="50" height="46" rx="4" fill="none" stroke="#66b3a1" stroke-width="1.5"/><text x="792" y="249" font-size="9" fill="#f5f6fa">52</text><text x="813.0" y="269" font-size="18" fill="#66b3a1" text-anchor="middle" font-weight="bold">Te</text><rect x="840" y="236" width="50" height="46" rx="4" fill="none" stroke="#7fbf7f" stroke-width="1.5"/><text x="844" y="249" font-size="9" fill="#f5f6fa">53</text><text x="865.0" y="269" font-size="18" fill="#7fbf7f" text-anchor="middle" font-weight="bold">I</text><rect x="892" y="236" width="50" height="46" rx="4" fill="none" stroke="#9999ff" stroke-width="1.5"/><text x="896" y="249" font-size="9" fill="#f5f6fa">54</text><text x="917.0" y="269" font-size="18" fill="#9999ff" text-anchor="middle" font-weight="bold">Xe</text><rect x="8" y="284" width="50" height="46" rx="4" fill="none" stroke="#cc6666" stroke-width="1.5"/><text x="12" y="297" font-size="9" fill="#f5f6fa">55</text><text x="33.0" y="317" font-size="18" fill="#cc6666" text-anchor="middle" font-weight="bold">Cs</text><rect x="60" y="284" width="50" height="46" rx="4" fill="none" stroke="#e08a5a" stroke-width="1.5"/><text x="64" y="297" font-size="9" fill="#f5f6fa">56</text><text x="85.0" y="317" font-size="18" fill="#e08a5a" text-anchor="middle" font-weight="bold">Ba</text><rect x="112" y="398" width="50" height="46" rx="4" fill="none" stroke="#cc99cc" stroke-width="1.5"/><text x="116" y="411" font-size="9" fill="#f5f6fa">57</text><text x="137.0" y="431" font-size="18" fill="#cc99cc" text-anchor="middle" font-weight="bold">La</text><rect x="164" y="398" width="50" height="46" rx="4" fill="none" stroke="#cc99cc" stroke-width="1.5"/><text x="168" y="411" font-size="9" fill="#f5f6fa">58</text><text x="189.0" y="431" font-size="18" fill="#cc99cc" text-anchor="middle" font-weight="bold">Ce</text><rect x="216" y="398" width="50" height="46" rx="4" fill="none" stroke="#cc99cc" stroke-width="1.5"/><text x="220" y="411" font-size="9" fill="#f5f6fa">59</text><text x="241.0" y="431" font-size="18" fill="#cc99cc" text-anchor="middle" font-weight="bold">Pr</text><rect x="268" y="398" width="50" height="46" rx="4" fill="none" stroke="#cc99cc" stroke-width="1.5"/><text x="272" y="411" font-size="9" fill="#f5f6fa">60</text><text x="293.0" y="431" font-size="18" fill="#cc99cc" text-anchor="middle" font-weight="bold">Nd</text><rect x="320" y="398" width="50" height="46" rx="4" fill="none" stroke="#cc99cc" stroke-width="1.5"/><text x="324" y="411" font-size="9" fill="#f5f6fa">61</text><text x="345.0" y="431" font-size="18" fill="#cc99cc" text-anchor="middle" font-weight="bold">Pm</text><rect x="372" y="398" width="50" height="46" rx="4" fill="none" stroke="#cc99cc" stroke-width="1.5"/><text x="376" y="411" font-size="9" fill="#f5f6fa">62</text><text x="397.0" y="431" font-size="18" fill="#cc99cc" text-anchor="middle" font-weight="bold">Sm</text><rect x="424" y="398" width="50" height="46" rx="4" fill="none" stroke="#cc99cc" stroke-width="1.5"/><text x="428" y="411" font-size="9" fill="#f5f6fa">63</text><text x="449.0" y="431" font-size="18" fill="#cc99cc" text-anchor="middle" font-weight="bold">Eu</text><rect x="476" y="398" width="50" height="46" rx="4" fill="none" stroke="#cc99cc" stroke-width="1.5"/><text x="480" y="411" font-size="9" fill="#f5f6fa">64</text><text x="501.0" y="431" font-size="18" fill="#cc99cc" text-anchor="middle" font-weight="bold">Gd</text><rect x="528" y="398" width="50" height="46" rx="4" fill="none" stroke="#cc99cc" stroke-width="1.5"/><text x="532" y="411" font-size="9" fill="#f5f6fa">65</text><text x="553.0" y="431" font-size="18" fill="#cc99cc" text-anchor="middle" font-weight="bold">Tb</text><rect x="580" y="398" width="50" height="46" rx="4" fill="none" stroke="#cc99cc" stroke-width="1.5"/><text x="584" y="411" font-size="9" fill="#f5f6fa">66</text><text x="605.0" y="431" font-size="18" fill="#cc99cc" text-anchor="middle" font-weight="bold">Dy</text><rect x="632" y="398" width="50" height="46" rx="4" fill="none" stroke="#cc99cc" stroke-width="1.5"/><text x="636" y="411" font-size="9" fill="#f5f6fa">67</text><text x="657.0" y="431" font-size="18" fill="#cc99cc" text-anchor="middle" font-weight="bold">Ho</text><rect x="684" y="398" width="50" height="46" rx="4" fill="none" stroke="#cc99cc" stroke-width="1.5"/><text x="688" y="411" font-size="9" fill="#f5f6fa">68</text><text x="709.0" y="431" font-size="18" fill="#cc99cc" text-anchor="middle" font-weight="bold">Er</text><rect x="736" y="398" width="50" height="46" rx="4" fill="none" stroke="#cc99cc" stroke-width="1.5"/><text x="740" y="411" font-size="9" fill="#f5f6fa">69</text><text x="761.0" y="431" font-size="18" fill="#cc99cc" text-anchor="middle" font-weight="bold">Tm</text><rect x="788" y="398" width="50" height="46" rx="4" fill="none" stroke="#cc99cc" stroke-width="1.5"/><text x="792" y="411" font-size="9" fill="#f5f6fa">70</text><text x="813.0" y="431" font-size="18" fill="#cc99cc" text-anchor="middle" font-weight="bold">Yb</text><rect x="840" y="398" width="50" height="46" rx="4" fill="none" stroke="#cc99cc" stroke-width="1.5"/><text x="844" y="411" font-size="9" fill="#f5f6fa">71</text><text x="865.0" y="431" font-size="18" fill="#cc99cc" text-anchor="middle" font-weight="bold">Lu</text><rect x="164" y="284" width="50" height="46" rx="4" fill="none" stroke="#ffcc66" stroke-width="1.5"/><text x="168" y="297" font-size="9" fill="#f5f6fa">72</text><text x="189.0" y="317" font-size="18" fill="#ffcc66" text-anchor="middle" font-weight="bold">Hf</text><rect x="216" y="284" width="50" height="46" rx="4" fill="none" stroke="#ffcc66" stroke-width="1.5"/><text x="220" y="297" font-size="9" fill="#f5f6fa">73</text><text x="241.0" y="317" font-size="18" fill="#ffcc66" text-anchor="middle" font-weight="bold">Ta</text><rect x="268" y="284" width="50" height="46" rx="4" fill="none" stroke="#ffcc66" stroke-width="1.5"/><text x="272" y="297" font-size="9" fill="#f5f6fa">74</text><text x="293.0" y="317" font-size="18" fill="#ffcc66" text-anchor="middle" font-weight="bold">W</text><rect x="320" y="284" width="50" height="46" rx="4" fill="none" stroke="#ffcc66" stroke-width="1.5"/><text x="324" y="297" font-size="9" fill="#f5f6fa">75</text><text x="345.0" y="317" font-size="18" fill="#ffcc66" text-anchor="middle" font-weight="bold">Re</text><rect x="372" y="284" width="50" height="46" rx="4" fill="none" stroke="#ffcc66" stroke-width="1.5"/><text x="376" y="297" font-size="9" fill="#f5f6fa">76</text><text x="397.0" y="317" font-size="18" fill="#ffcc66" text-anchor="middle" font-weight="bold">Os</text><rect x="424" y="284" width="50" height="46" rx="4" fill="none" stroke="#ffcc66" stroke-width="1.5"/><text x="428" y="297" font-size="9" fill="#f5f6fa">77</text><text x="449.0" y="317" font-size="18" fill="#ffcc66" text-anchor="middle" font-weight="bold">Ir</text><rect x="476" y="284" width="50" height="46" rx="4" fill="none" stroke="#ffcc66" stroke-width="1.5"/><text x="480" y="297" font-size="9" fill="#f5f6fa">78</text><text x="501.0" y="317" font-size="18" fill="#ffcc66" text-anchor="middle" font-weight="bold">Pt</text><rect x="528" y="284" width="50" height="46" rx="4" fill="none" stroke="#ffcc66" stroke-width="1.5"/><text x="532" y="297" font-size="9" fill="#f5f6fa">79</text><text x="553.0" y="317" font-size="18" fill="#ffcc66" text-anchor="middle" font-weight="bold">Au</text><rect x="580" y="284" width="50" height="46" rx="4" fill="none" stroke="#ffcc66" stroke-width="1.5"/><text x="584" y="297" font-size="9" fill="#f5f6fa">80</text><text x="605.0" y="317" font-size="18" fill="#ffcc66" text-anchor="middle" font-weight="bold">Hg</text><rect x="632" y="284" width="50" height="46" rx="4" fill="none" stroke="#b3b3cc" stroke-width="1.5"/><text x="636" y="297" font-size="9" fill="#f5f6fa">81</text><text x="657.0" y="317" font-size="18" fill="#b3b3cc" text-anchor="middle" font-weight="bold">Tl</text><rect x="684" y="284" width="50" height="46" rx="4" fill="none" stroke="#b3b3cc" stroke-width="1.5"/><text x="688" y="297" font-size="9" fill="#f5f6fa">82</text><text x="709.0" y="317" font-size="18" fill="#b3b3cc" text-anchor="middle" font-weight="bold">Pb</text><rect x="736" y="284" width="50" height="46" rx="4" fill="none" stroke="#b3b3cc" stroke-width="1.5"/><text x="740" y="297" font-size="9" fill="#f5f6fa">83</text><text x="761.0" y="317" font-size="18" fill="#b3b3cc" text-anchor="middle" font-weight="bold">Bi</text><rect x="788" y="284" width="50" height="46" rx="4" fill="none" stroke="#b3b3cc" stroke-width="1.5"/><text x="792" y="297" font-size="9" fill="#f5f6fa">84</text><text x="813.0" y="317" font-size="18" fill="#b3b3cc" text-anchor="middle" font-weight="bold">Po</text><rect x="840" y="284" width="50" height="46" rx="4" fill="none" stroke="#7fbf7f" stroke-width="1.5"/><text x="844" y="297" font-size="9" fill="#f5f6fa">85</text><text x="865.0" y="317" font-size="18" fill="#7fbf7f" text-anchor="middle" font-weight="bold">At</text><rect x="892" y="284" width="50" height="46" rx="4" fill="none" stroke="#9999ff" stroke-width="1.5"/><text x="896" y="297" font-size="9" fill="#f5f6fa">86</text><text x="917.0" y="317" font-size="18" fill="#9999ff" text-anchor="middle" font-weight="bold">Rn</text><rect x="8" y="332" width="50" height="46" rx="4" fill="none" stroke="#cc6666" stroke-width="1.5"/><text x="12" y="345" font-size="9" fill="#f5f6fa">87</text><text x="33.0" y="365" font-size="18" fill="#cc6666" text-anchor="middle" font-weight="bold">Fr</text><rect x="60" y="332" width="50" height="46" rx="4" fill="none" stroke="#e08a5a" stroke-width="1.5"/><text x="64" y="345" font-size="9" fill="#f5f6fa">88</text><text x="85.0" y="365" font-size="18" fill="#e08a5a" text-anchor="middle" font-weight="bold">Ra</text><rect x="112" y="446" width="50" height="46" rx="4" fill="none" stroke="#c07fb0" stroke-width="1.5"/><text x="116" y="459" font-size="9" fill="#f5f6fa">89</text><text x="137.0" y="479" font-size="18" fill="#c07fb0" text-anchor="middle" font-weight="bold">Ac</text><rect x="164" y="446" width="50" height="46" rx="4" fill="none" stroke="#c07fb0" stroke-width="1.5"/><text x="168" y="459" font-size="9" fill="#f5f6fa">90</text><text x="189.0" y="479" font-size="18" fill="#c07fb0" text-anchor="middle" font-weight="bold">Th</text><rect x="216" y="446" width="50" height="46" rx="4" fill="none" stroke="#c07fb0" stroke-width="1.5"/><text x="220" y="459" font-size="9" fill="#f5f6fa">91</text><text x="241.0" y="479" font-size="18" fill="#c07fb0" text-anchor="middle" font-weight="bold">Pa</text><rect x="268" y="446" width="50" height="46" rx="4" fill="none" stroke="#c07fb0" stroke-width="1.5"/><text x="272" y="459" font-size="9" fill="#f5f6fa">92</text><text x="293.0" y="479" font-size="18" fill="#c07fb0" text-anchor="middle" font-weight="bold">U</text><rect x="320" y="446" width="50" height="46" rx="4" fill="none" stroke="#c07fb0" stroke-width="1.5"/><text x="324" y="459" font-size="9" fill="#f5f6fa">93</text><text x="345.0" y="479" font-size="18" fill="#c07fb0" text-anchor="middle" font-weight="bold">Np</text><rect x="372" y="446" width="50" height="46" rx="4" fill="none" stroke="#c07fb0" stroke-width="1.5"/><text x="376" y="459" font-size="9" fill="#f5f6fa">94</text><text x="397.0" y="479" font-size="18" fill="#c07fb0" text-anchor="middle" font-weight="bold">Pu</text><rect x="424" y="446" width="50" height="46" rx="4" fill="none" stroke="#c07fb0" stroke-width="1.5"/><text x="428" y="459" font-size="9" fill="#f5f6fa">95</text><text x="449.0" y="479" font-size="18" fill="#c07fb0" text-anchor="middle" font-weight="bold">Am</text><rect x="476" y="446" width="50" height="46" rx="4" fill="none" stroke="#c07fb0" stroke-width="1.5"/><text x="480" y="459" font-size="9" fill="#f5f6fa">96</text><text x="501.0" y="479" font-size="18" fill="#c07fb0" text-anchor="middle" font-weight="bold">Cm</text><rect x="528" y="446" width="50" height="46" rx="4" fill="none" stroke="#c07fb0" stroke-width="1.5"/><text x="532" y="459" font-size="9" fill="#f5f6fa">97</text><text x="553.0" y="479" font-size="18" fill="#c07fb0" text-anchor="middle" font-weight="bold">Bk</text><rect x="580" y="446" width="50" height="46" rx="4" fill="none" stroke="#c07fb0" stroke-width="1.5"/><text x="584" y="459" font-size="9" fill="#f5f6fa">98</text><text x="605.0" y="479" font-size="18" fill="#c07fb0" text-anchor="middle" font-weight="bold">Cf</text><rect x="632" y="446" width="50" height="46" rx="4" fill="none" stroke="#c07fb0" stroke-width="1.5"/><text x="636" y="459" font-size="9" fill="#f5f6fa">99</text><text x="657.0" y="479" font-size="18" fill="#c07fb0" text-anchor="middle" font-weight="bold">Es</text><rect x="684" y="446" width="50" height="46" rx="4" fill="none" stroke="#c07fb0" stroke-width="1.5"/><text x="688" y="459" font-size="9" fill="#f5f6fa">100</text><text x="709.0" y="479" font-size="18" fill="#c07fb0" text-anchor="middle" font-weight="bold">Fm</text><rect x="736" y="446" width="50" height="46" rx="4" fill="none" stroke="#c07fb0" stroke-width="1.5"/><text x="740" y="459" font-size="9" fill="#f5f6fa">101</text><text x="761.0" y="479" font-size="18" fill="#c07fb0" text-anchor="middle" font-weight="bold">Md</text><rect x="788" y="446" width="50" height="46" rx="4" fill="none" stroke="#c07fb0" stroke-width="1.5"/><text x="792" y="459" font-size="9" fill="#f5f6fa">102</text><text x="813.0" y="479" font-size="18" fill="#c07fb0" text-anchor="middle" font-weight="bold">No</text><rect x="840" y="446" width="50" height="46" rx="4" fill="none" stroke="#c07fb0" stroke-width="1.5"/><text x="844" y="459" font-size="9" fill="#f5f6fa">103</text><text x="865.0" y="479" font-size="18" fill="#c07fb0" text-anchor="middle" font-weight="bold">Lr</text><rect x="164" y="332" width="50" height="46" rx="4" fill="none" stroke="#ffcc66" stroke-width="1.5"/><text x="168" y="345" font-size="9" fill="#f5f6fa">104</text><text x="189.0" y="365" font-size="18" fill="#ffcc66" text-anchor="middle" font-weight="bold">Rf</text><rect x="216" y="332" width="50" height="46" rx="4" fill="none" stroke="#ffcc66" stroke-width="1.5"/><text x="220" y="345" font-size="9" fill="#f5f6fa">105</text><text x="241.0" y="365" font-size="18" fill="#ffcc66" text-anchor="middle" font-weight="bold">Db</text><rect x="268" y="332" width="50" height="46" rx="4" fill="none" stroke="#ffcc66" stroke-width="1.5"/><text x="272" y="345" font-size="9" fill="#f5f6fa">106</text><text x="293.0" y="365" font-size="18" fill="#ffcc66" text-anchor="middle" font-weight="bold">Sg</text><rect x="320" y="332" width="50" height="46" rx="4" fill="none" stroke="#ffcc66" stroke-width="1.5"/><text x="324" y="345" font-size="9" fill="#f5f6fa">107</text><text x="345.0" y="365" font-size="18" fill="#ffcc66" text-anchor="middle" font-weight="bold">Bh</text><rect x="372" y="332" width="50" height="46" rx="4" fill="none" stroke="#ffcc66" stroke-width="1.5"/><text x="376" y="345" font-size="9" fill="#f5f6fa">108</text><text x="397.0" y="365" font-size="18" fill="#ffcc66" text-anchor="middle" font-weight="bold">Hs</text><rect x="424" y="332" width="50" height="46" rx="4" fill="none" stroke="#ffcc66" stroke-width="1.5"/><text x="428" y="345" font-size="9" fill="#f5f6fa">109</text><text x="449.0" y="365" font-size="18" fill="#ffcc66" text-anchor="middle" font-weight="bold">Mt</text><rect x="476" y="332" width="50" height="46" rx="4" fill="none" stroke="#ffcc66" stroke-width="1.5"/><text x="480" y="345" font-size="9" fill="#f5f6fa">110</text><text x="501.0" y="365" font-size="18" fill="#ffcc66" text-anchor="middle" font-weight="bold">Ds</text><rect x="528" y="332" width="50" height="46" rx="4" fill="none" stroke="#ffcc66" stroke-width="1.5"/><text x="532" y="345" font-size="9" fill="#f5f6fa">111</text><text x="553.0" y="365" font-size="18" fill="#ffcc66" text-anchor="middle" font-weight="bold">Rg</text><rect x="580" y="332" width="50" height="46" rx="4" fill="none" stroke="#ffcc66" stroke-width="1.5"/><text x="584" y="345" font-size="9" fill="#f5f6fa">112</text><text x="605.0" y="365" font-size="18" fill="#ffcc66" text-anchor="middle" font-weight="bold">Cn</text><rect x="632" y="332" width="50" height="46" rx="4" fill="none" stroke="#b3b3cc" stroke-width="1.5"/><text x="636" y="345" font-size="9" fill="#f5f6fa">113</text><text x="657.0" y="365" font-size="18" fill="#b3b3cc" text-anchor="middle" font-weight="bold">Nh</text><rect x="684" y="332" width="50" height="46" rx="4" fill="none" stroke="#b3b3cc" stroke-width="1.5"/><text x="688" y="345" font-size="9" fill="#f5f6fa">114</text><text x="709.0" y="365" font-size="18" fill="#b3b3cc" text-anchor="middle" font-weight="bold">Fl</text><rect x="736" y="332" width="50" height="46" rx="4" fill="none" stroke="#b3b3cc" stroke-width="1.5"/><text x="740" y="345" font-size="9" fill="#f5f6fa">115</text><text x="761.0" y="365" font-size="18" fill="#b3b3cc" text-anchor="middle" font-weight="bold">Mc</text><rect x="788" y="332" width="50" height="46" rx="4" fill="none" stroke="#b3b3cc" stroke-width="1.5"/><text x="792" y="345" font-size="9" fill="#f5f6fa">116</text><text x="813.0" y="365" font-size="18" fill="#b3b3cc" text-anchor="middle" font-weight="bold">Lv</text><rect x="840" y="332" width="50" height="46" rx="4" fill="none" stroke="#7fbf7f" stroke-width="1.5"/><text x="844" y="345" font-size="9" fill="#f5f6fa">117</text><text x="865.0" y="365" font-size="18" fill="#7fbf7f" text-anchor="middle" font-weight="bold">Ts</text><rect x="892" y="332" width="50" height="46" rx="4" fill="none" stroke="#9999ff" stroke-width="1.5"/><text x="896" y="345" font-size="9" fill="#f5f6fa">118</text><text x="917.0" y="365" font-size="18" fill="#9999ff" text-anchor="middle" font-weight="bold">Og</text><rect x="112" y="284" width="50" height="46" rx="4" fill="none" stroke="#cc99cc" stroke-width="1" stroke-dasharray="3 3"/><text x="137.0" y="312" font-size="10" fill="#cc99cc" text-anchor="middle">57-71</text><rect x="112" y="332" width="50" height="46" rx="4" fill="none" stroke="#cc99cc" stroke-width="1" stroke-dasharray="3 3"/><text x="137.0" y="360" font-size="10" fill="#cc99cc" text-anchor="middle">89-103</text><rect x="164" y="50" width="14" height="14" rx="2" fill="#cc6666"/><text x="184" y="62" font-size="12" fill="#f5f6fa">Alkali</text><rect x="268" y="50" width="14" height="14" rx="2" fill="#e08a5a"/><text x="288" y="62" font-size="12" fill="#f5f6fa">Alkaline</text><rect x="372" y="50" width="14" height="14" rx="2" fill="#ffcc66"/><text x="392" y="62" font-size="12" fill="#f5f6fa">Transition</text><rect x="476" y="50" width="14" height="14" rx="2" fill="#b3b3cc"/><text x="496" y="62" font-size="12" fill="#f5f6fa">Post-transition</text><rect x="580" y="50" width="14" height="14" rx="2" fill="#66b3a1"/><text x="600" y="62" font-size="12" fill="#f5f6fa">Metalloid</text><rect x="164" y="72" width="14" height="14" rx="2" fill="#8fc98f"/><text x="184" y="84" font-size="12" fill="#f5f6fa">Nonmetal</text><rect x="268" y="72" width="14" height="14" rx="2" fill="#7fbf7f"/><text x="288" y="84" font-size="12" fill="#f5f6fa">Halogen</text><rect x="372" y="72" width="14" height="14" rx="2" fill="#9999ff"/><text x="392" y="84" font-size="12" fill="#f5f6fa">Noble gas</text><rect x="476" y="72" width="14" height="14" rx="2" fill="#cc99cc"/><text x="496" y="84" font-size="12" fill="#f5f6fa">Lanthanide</text><rect x="580" y="72" width="14" height="14" rx="2" fill="#c07fb0"/><text x="600" y="84" font-size="12" fill="#f5f6fa">Actinide</text></svg>
